<svg xmlns="http://www.w3.org/2000/svg" width="116" height="62"><defs><clipPath id="a"><path fill="#fff" d="M16.92 40.85v13.897H2.42V40.85a3.022 3.022 0 013.02-3.021h8.46a3.022 3.022 0 013.02 3.02z"/></clipPath><clipPath id="b"><path fill="#fff" d="M36.25 31.19v23.563h-14.5V31.191a3.022 3.022 0 013.02-3.021h8.46a3.022 3.022 0 013.02 3.02z"/></clipPath><clipPath id="c"><path fill="#fff" d="M55.58 21.52v33.23h-14.5V21.52a3.022 3.022 0 013.02-3.02h8.46a3.022 3.022 0 013.02 3.02z"/></clipPath><clipPath id="d"><path fill="#fff" d="M56.188 62.005H1.812a1.813 1.813 0 010-3.625h54.376a1.813 1.813 0 010 3.625z"/></clipPath></defs><path fill="#ff00d6" d="M7.247 30.583a2.41 2.41 0 01-1.708-.708 2.414 2.414 0 010-3.417l16.69-16.69a2.414 2.414 0 013.416 0 2.414 2.414 0 010 3.418l-16.69 16.69a2.41 2.41 0 01-1.708.707z"/><path fill="#ff00d6" d="M27.191 18.503a1.8 1.8 0 01-1.28-.531l-8.46-8.459a1.81 1.81 0 011.282-3.093h8.458c1 0 1.812.812 1.812 1.812v8.459a1.814 1.814 0 01-1.812 1.812z"/><path fill="none" stroke="#ff00d6" stroke-miterlimit="20" stroke-width="2" d="M16.92 40.85v13.897H2.42v0V40.85a3.022 3.022 0 013.02-3.021h8.46a3.022 3.022 0 013.02 3.02z" clip-path="url(&quot;#a&quot;)"/><path fill="none" stroke="#ff00d6" stroke-miterlimit="20" stroke-width="2" d="M36.25 31.19v23.563h-14.5v0-23.562a3.022 3.022 0 013.02-3.021h8.46a3.022 3.022 0 013.02 3.02z" clip-path="url(&quot;#b&quot;)"/><path fill="none" stroke="#ff00d6" stroke-miterlimit="20" stroke-width="2" d="M55.58 21.52v33.23h-14.5v0-33.23a3.022 3.022 0 013.02-3.02h8.46a3.022 3.022 0 013.02 3.02z" clip-path="url(&quot;#c&quot;)"/><path fill="none" stroke="#ff00d6" stroke-miterlimit="20" stroke-width="2" d="M56.188 62.005v0H1.812a1.813 1.813 0 010-3.625h54.376a1.813 1.813 0 010 3.625z" clip-path="url(&quot;#d&quot;)"/><text dominant-baseline="text-before-edge" style="font-kerning:normal" fill="#ff00d6" font-family="'Raleway','Raleway-SemiBold'" font-size="16" transform="translate(41 -3)"><tspan style="font-kerning:normal">Marketing</tspan></text></svg>