<svg xmlns="http://www.w3.org/2000/svg" width="57" height="65"><defs><clipPath id="a"><path fill="#fff" d="M20.96 18.789h6.866c1.207-2.505-.62-5.459-3.434-5.459-2.809 0-4.644 2.95-3.432 5.459z"/></clipPath><clipPath id="b"><path fill="#fff" d="M24.389 9.521c4.851 0 8.49 4.5 7.437 9.268h9.701V14.6a1.27 1.27 0 00-1.27-1.269h-2.562a13.75 13.75 0 00-1.205-2.906l1.813-1.813a1.27 1.27 0 000-1.796l-3.59-3.59a1.27 1.27 0 00-1.796 0l-1.813 1.813a13.752 13.752 0 00-2.907-1.206V1.27A1.27 1.27 0 0026.927 0H21.85a1.27 1.27 0 00-1.27 1.27v2.562a13.76 13.76 0 00-2.906 1.206L15.86 3.224a1.27 1.27 0 00-1.796 0l-3.59 3.591a1.27 1.27 0 000 1.796l1.813 1.813c-.507.91-.914 1.884-1.206 2.906H8.52a1.27 1.27 0 00-1.27 1.27v4.19h9.706c-1.059-4.78 2.592-9.269 7.433-9.269z"/></clipPath><clipPath id="c"><path fill="#fff" d="M56.182 40.33l-7.474-11.175a22.577 22.577 0 00-1.354-6.555H1.896c-4.288 11.643 1.576 25.07 13.842 29.421v11.077c0 1.051.852 1.904 1.905 1.904H39.35a1.905 1.905 0 001.905-1.904v-9.775h5.586a1.905 1.905 0 001.904-1.905v-8.125H54.6c1.518 0 2.428-1.698 1.583-2.963z"/></clipPath></defs><path fill="none" stroke="#ff00d6" stroke-miterlimit="20" stroke-width="2" d="M20.96 18.789v0h6.866c1.207-2.505-.62-5.459-3.434-5.459-2.809 0-4.644 2.95-3.432 5.459z" clip-path="url(&quot;#a&quot;)"/><path fill="none" stroke="#ff00d6" stroke-miterlimit="20" stroke-width="2" d="M24.389 9.521c4.851 0 8.49 4.5 7.437 9.268h9.701v0-4.19a1.27 1.27 0 00-1.27-1.269h-2.562a13.75 13.75 0 00-1.205-2.906l1.813-1.813a1.27 1.27 0 000-1.796l-3.59-3.59a1.27 1.27 0 00-1.796 0l-1.813 1.813a13.752 13.752 0 00-2.907-1.206V1.27A1.27 1.27 0 0026.927 0H21.85a1.27 1.27 0 00-1.27 1.27v2.562a13.76 13.76 0 00-2.906 1.206L15.86 3.224a1.27 1.27 0 00-1.796 0l-3.59 3.591a1.27 1.27 0 000 1.796l1.813 1.813c-.507.91-.914 1.884-1.206 2.906H8.52a1.27 1.27 0 00-1.27 1.27v4.19h9.706c-1.059-4.78 2.592-9.269 7.433-9.269z" clip-path="url(&quot;#b&quot;)"/><path fill="none" stroke="#ff00d6" stroke-miterlimit="20" stroke-width="2" d="M56.182 40.33v0l-7.474-11.175a22.577 22.577 0 00-1.354-6.555H1.896c-4.288 11.643 1.576 25.07 13.842 29.421v11.077c0 1.051.852 1.904 1.905 1.904H39.35a1.905 1.905 0 001.905-1.904v-9.775 0h5.586a1.905 1.905 0 001.904-1.905v-8.125 0H54.6c1.518 0 2.428-1.698 1.583-2.963z" clip-path="url(&quot;#c&quot;)"/></svg>