<svg xmlns="http://www.w3.org/2000/svg" width="196" height="196"><path fill="#ff00d6" fill-opacity=".4" d="M127.667 7.928a23.177 23.177 0 0117.807 27.483l-7.81 36.553 36.553 7.81a23.177 23.177 0 0117.807 27.482l-4.343 20.328a23.18 23.18 0 01-27.483 17.806l-36.553-7.81-7.81 36.554a23.176 23.176 0 01-27.482 17.807l-20.328-4.343a23.18 23.18 0 01-17.807-27.483l7.81-36.553-36.553-7.81A23.176 23.176 0 013.668 88.269l4.343-20.327a23.178 23.178 0 0127.483-17.807l36.553 7.81 7.81-36.554A23.178 23.178 0 01107.34 3.585zM107.95.732a26.08 26.08 0 00-30.945 20.05l-7.2 33.7-33.7-7.2a26.08 26.08 0 00-30.946 20.05L.815 87.66a26.08 26.08 0 0020.05 30.946l33.7 7.2-7.2 33.7a26.08 26.08 0 0020.052 30.945l20.327 4.342a26.081 26.081 0 0030.945-20.05l7.2-33.7 33.7 7.2a26.077 26.077 0 0030.946-20.05l4.343-20.327a26.082 26.082 0 00-20.05-30.945l-33.7-7.2 7.2-33.7a26.078 26.078 0 00-20.051-30.946z"/></svg>