<svg xmlns="http://www.w3.org/2000/svg" width="195" height="196"><path fill="#ff00d6" fill-opacity=".4" d="M132.248 9.568a23.177 23.177 0 0116.374 28.36l-9.674 36.104 36.104 9.674a23.177 23.177 0 0116.374 28.36l-5.38 20.078a23.18 23.18 0 01-28.36 16.374l-36.105-9.674-9.674 36.104a23.176 23.176 0 01-28.36 16.374l-20.078-5.38a23.18 23.18 0 01-16.374-28.36l9.675-36.104-36.105-9.674a23.176 23.176 0 01-16.374-28.36l5.38-20.078a23.178 23.178 0 0128.36-16.374l36.105 9.674 9.674-36.104a23.178 23.178 0 0128.36-16.374zM112.925 1.37a26.08 26.08 0 00-31.933 18.437l-8.919 33.286-33.285-8.92a26.08 26.08 0 00-31.935 18.44L1.473 82.69a26.08 26.08 0 0018.437 31.933l33.286 8.92-8.92 33.286a26.08 26.08 0 0018.44 31.932l20.077 5.38a26.081 26.081 0 0031.933-18.436l8.919-33.287 33.287 8.919a26.077 26.077 0 0031.932-18.436l5.38-20.078a26.082 26.082 0 00-18.436-31.933l-33.288-8.92 8.919-33.286A26.078 26.078 0 00133.003 6.75z"/></svg>