<svg xmlns="http://www.w3.org/2000/svg" width="195" height="195"><path fill="#ff00d6" fill-opacity=".4" d="M82.2 3.82a23.177 23.177 0 0128.467 16.185l9.914 36.04 36.04-9.913a23.177 23.177 0 0128.467 16.185l5.513 20.041a23.18 23.18 0 01-16.185 28.469l-36.04 9.913 9.914 36.04a23.176 23.176 0 01-16.185 28.468l-20.042 5.512a23.18 23.18 0 01-28.468-16.185l-9.914-36.04-36.039 9.914a23.176 23.176 0 01-28.468-16.185L3.66 112.222a23.178 23.178 0 0116.185-28.468l36.04-9.913-9.914-36.04A23.178 23.178 0 0162.158 9.333zm-20.816 2.7A26.08 26.08 0 0043.16 38.575L52.3 71.8l-33.227 9.14A26.08 26.08 0 00.85 112.995l5.512 20.041a26.08 26.08 0 0032.055 18.225l33.226-9.14 9.14 33.227a26.08 26.08 0 0032.056 18.224l20.04-5.513a26.081 26.081 0 0018.224-32.054l-9.14-33.227 33.228-9.14a26.077 26.077 0 0018.224-32.054L187.9 61.543a26.082 26.082 0 00-32.054-18.224l-33.227 9.14-9.14-33.226A26.078 26.078 0 0081.426 1.008z"/></svg>