<svg width="1439" height="367" fill="none" xmlns="http://www.w3.org/2000/svg"><path d="M-.821 18.995c80.891 2.858 153.164 42.707 224.768 74.187 57.437 25.238 121.552 52.426 186.617 42.726 68.085-10.149 129.661-47.374 189.487-77.233C651.429 33.053 708.226 4 767.983 4c115.703.094 190.796 106.839 301.447 123.38 134.51 20.121 237.82-103.7 369.42-108.385" stroke="url(#paint0_linear)" stroke-opacity=".9" stroke-width="8" stroke-miterlimit="10"/><path d="M-1 93.953c80.891 2.858 153.165 42.707 224.769 74.187 57.436 25.238 121.552 52.426 186.617 42.726 68.084-10.15 129.66-47.375 189.486-77.233 51.379-25.623 108.176-54.675 167.932-54.675 115.703.094 190.796 106.838 301.446 123.38 134.51 20.121 237.82-103.7 369.42-108.385" stroke="url(#paint1_linear)" stroke-opacity=".9" stroke-width="8" stroke-miterlimit="10"/><path d="M-1 168.91c80.891 2.859 153.165 42.708 224.769 74.188 57.436 25.238 121.552 52.426 186.617 42.726 68.084-10.15 129.66-47.375 189.486-77.233 51.379-25.623 108.176-54.675 167.932-54.675 115.703.093 190.796 106.838 301.446 123.379 134.51 20.122 237.82-103.699 369.42-108.385" stroke="url(#paint2_linear)" stroke-opacity=".9" stroke-width="8" stroke-miterlimit="10"/><path d="M-1 243.868c80.891 2.859 153.165 42.707 224.769 74.187 57.436 25.239 121.552 52.426 186.617 42.726 68.084-10.149 129.66-47.374 189.486-77.233 51.379-25.622 108.176-54.675 167.932-54.675 115.703.094 190.796 106.839 301.446 123.38 134.51 20.121 237.82-103.699 369.42-108.385" stroke="url(#paint3_linear)" stroke-opacity=".9" stroke-width="8" stroke-miterlimit="10"/><defs><linearGradient id="paint0_linear" x1="-.981" y1="70.962" x2="1439" y2="70.962" gradientUnits="userSpaceOnUse"><stop offset=".25" stop-color="#6A0068"/><stop offset=".41" stop-color="#00108D"/><stop offset=".57" stop-color="#960093"/></linearGradient><linearGradient id="paint1_linear" x1="-1.16" y1="145.919" x2="1438.82" y2="145.919" gradientUnits="userSpaceOnUse"><stop offset=".25" stop-color="#6A0068"/><stop offset=".41" stop-color="#00108D"/><stop offset=".57" stop-color="#960093"/></linearGradient><linearGradient id="paint2_linear" x1="-1.16" y1="220.877" x2="1438.82" y2="220.877" gradientUnits="userSpaceOnUse"><stop offset=".25" stop-color="#6A0068"/><stop offset=".41" stop-color="#00108D"/><stop offset=".57" stop-color="#960093"/></linearGradient><linearGradient id="paint3_linear" x1="-1.16" y1="295.835" x2="1438.82" y2="295.835" gradientUnits="userSpaceOnUse"><stop offset=".25" stop-color="#6A0068"/><stop offset=".41" stop-color="#00108D"/><stop offset=".57" stop-color="#960093"/></linearGradient></defs></svg>